<?xml version="1.0" encoding="UTF-8"?>
<svg id="Layer_1" data-name="Layer 1" xmlns="http://www.w3.org/2000/svg" viewBox="0 0 715.7321 860">
  <defs>
    <style>
      .cls-1 {
        fill: #7cddae;
      }

      .cls-2 {
        fill: #ccf2cd;
      }

      .cls-3 {
        fill: #0d585f;
      }
    </style>
  </defs>
  <path class="cls-3" d="M692.6221,557.9266l-278.9633,278.9634c-15.4067,15.4067-35.5997,23.1101-55.7927,23.1101-20.193,0-40.3859-7.7034-55.7927-23.1101l-167.378-167.378,390.5486-390.5487,167.378,167.378c15.4067,15.4067,23.1101,35.5997,23.1101,55.7927,0,20.193-7.7034,40.3859-23.1101,55.7927Z"/>
  <path class="cls-1" d="M78.9028,502.134l167.378,167.378c15.4067,15.4067,35.5997,23.1101,55.7927,23.1101,20.193,0,40.3859-7.7034,55.7927-23.1101l223.1706-223.1707c15.4067-15.4067,35.5997-23.1101,55.7927-23.1101,20.193,0,40.3859,7.7034,55.7927,23.1101L413.6587,167.378,78.9028,502.134Z"/>
  <path class="cls-2" d="M23.1101,334.756C7.7034,350.1628,0,370.3557,0,390.5487c0,20.193,7.7034,40.3859,23.1101,55.7927l223.1707,223.1706c-15.4067-15.4067-23.1101-35.5997-23.1101-55.7927,0-20.193,7.7034-40.3859,23.1101-55.7927l278.9633-278.9634c15.4067-15.4067,23.1101-35.5997,23.1101-55.7927,0-20.193-7.7034-40.3859-23.1101-55.7927L357.866,0,23.1101,334.756Z"/>
</svg>